<svg viewBox="-960 -463.5 1920 927" width="1920" height="927" style="background-color: rgb(255, 255, 255);" xmlns="http://www.w3.org/2000/svg"><path d="M-113.18365222581735,138.6896739812367L-146.4419011246449,135.1698817408713M-146.44190112464486,-287.014075107935L-146.4419011246449,135.1698817408713M-146.4419011246449,135.1698817408713L-313.4536483396901,238.34233681806302M-113.18365222581733,-283.49428286756955L-113.18365222581735,138.6896739812367M-113.18365222581735,138.6896739812367L-280.1953994408626,241.86212905842848" style="fill:none;stroke:rgb(0,0,0);stroke-width:1;stroke-linecap:round"></path><path d="M-113.18365222581738,138.6896739812367L-146.44190112464491,135.16988174087126L-146.44190112464486,-287.014075107935z" style="fill:rgb(238,238,238); fill-opacity: 0.4"></path><path d="M-132.22483304694333,51.53855094008566L-165.48308194577086,48.018758699720244M-165.48308194577086,-23.24891709993726L-165.48308194577086,48.018758699720244M-165.48308194577086,48.018758699720244L-193.6758610937449,65.43500808725737" style="fill:none;stroke:rgb(0,0,0);stroke-width:1;stroke-linecap:round"></path><path d="M-132.2248330469434,51.538550940085635L-165.4830819457709,48.01875869972022L-165.4830819457709,-23.248917099937263z" style="fill:rgb(153,221,255); fill-opacity: 0.4"></path><path d="M-113.18365222581735,-283.4942828675696L-113.18365222581738,138.6896739812367L-146.44190112464486,-287.014075107935z" style="fill:rgb(238,238,238); fill-opacity: 0.4"></path><path d="M-132.22483304694333,-19.72912485957184L-132.22483304694333,51.53855094008566M-132.22483304694333,51.53855094008566L-160.41761219491738,68.95480032762279M-132.22482745197271,-19.72912306029107L-132.22482745197271,51.53855273936643M-132.22482745197271,51.53855273936643L-160.41760659994677,68.95480212690356M-132.22482745197271,51.53855273936643L16.150780481401252,32.57477772039254M-132.22483304694333,-19.72912485957184L-165.48308194577086,-23.24891709993726M-165.48308194577086,-23.24891709993726L-193.6758610937449,-5.832667712400121" style="fill:none;stroke:rgb(0,0,0);stroke-width:1;stroke-linecap:round"></path><path d="M-132.22483304694336,-19.729124859571847L-132.2248330469434,51.538550940085635L-165.4830819457709,-23.248917099937263zM-193.6758610937449,65.43500808725736L-165.4830819457709,48.01875869972022L-132.2248330469434,51.538550940085635z" style="fill:rgb(153,221,255); fill-opacity: 0.4"></path><path d="M-132.22483304694333,-19.72912485957184L-160.41761219491738,-2.312875472034702M-132.22482745197271,-19.72912306029107L-160.41760659994677,-2.3128736727539336M-132.22482745197271,-19.72912306029107L16.150780481401252,32.57477772039254" style="fill:none;stroke:rgb(0,0,0);stroke-width:1;stroke-linecap:round"></path><path d="M-165.4830819457709,-23.248917099937263L-165.4830819457709,48.01875869972022L-193.6758610937449,-5.832667712400131z" style="fill:rgb(153,221,255); fill-opacity: 0.4"></path><path d="M-113.18365222581733,-283.49428286756955L-146.44190112464486,-287.014075107935M-146.44190112464486,-287.014075107935L-313.4536483396901,-183.84162003074323" style="fill:none;stroke:rgb(0,0,0);stroke-width:1;stroke-linecap:round"></path><path d="M-132.22483334716168,-19.729124891344597L-132.22483334716168,51.53855090831289L-160.4176124951357,68.95480029585003z" style="fill:rgb(255,187,187); fill-opacity: 0.4"></path><path d="M-160.4176121949174,68.95480032762278L-132.2248330469434,51.538550940085635L-132.22483304694336,-19.729124859571847zM-160.4176121949174,-2.312875472034715L-132.22483304694336,-19.729124859571847L-165.4830819457709,-23.248917099937263zM-165.4830819457709,48.01875869972022L-193.6758610937449,65.43500808725736L-193.6758610937449,-5.832667712400131zM-160.4176121949174,68.95480032762278L-193.6758610937449,65.43500808725736L-132.2248330469434,51.538550940085635z" style="fill:rgb(153,221,255); fill-opacity: 0.4"></path><path d="M-113.18365222581733,-283.49428286756955L-280.19539944086256,-180.32182779037782" style="fill:none;stroke:rgb(0,0,0);stroke-width:1;stroke-linecap:round"></path><path d="M-313.4536483396902,238.34233681806302L-146.44190112464491,135.16988174087126L-113.18365222581738,138.6896739812367z" style="fill:rgb(238,238,238); fill-opacity: 0.4"></path><path d="M-193.6758610937449,-5.832667712400121L-193.6758610937449,65.43500808725737M-193.6758610937449,65.43500808725737L-160.41761219491738,68.95480032762279" style="fill:none;stroke:rgb(0,0,0);stroke-width:1;stroke-linecap:round"></path><path d="M-193.6758610937449,-5.832667712400131L-160.4176121949174,-2.312875472034715L-165.4830819457709,-23.248917099937263z" style="fill:rgb(153,221,255); fill-opacity: 0.4"></path><path d="M-132.22483334716168,51.53855090831289L-132.22483334716168,-19.729124891344597L16.150780266953422,32.574778957730544zM-132.22483334716168,-19.729124891344597L-160.4176124951357,68.95480029585003L-160.4176124951357,-2.312875503807463z" style="fill:rgb(255,187,187); fill-opacity: 0.4"></path><path d="M-160.4176121949174,-2.312875472034715L-160.4176121949174,68.95480032762278L-132.22483304694336,-19.729124859571847z" style="fill:rgb(153,221,255); fill-opacity: 0.4"></path><path d="M132.3479622489533,129.9827869769599L41.65827131445353,120.38490130945434M41.65827131445355,-204.58927345765073L41.65827131445353,120.38490130945434M41.65827131445353,120.38490130945434L-86.89825919117776,199.8014279289485M-160.41761219491738,-2.312875472034702L-160.41761219491738,68.95480032762279M-160.41760659994677,68.95480212690356L-160.41760659994677,-2.3128736727539336M-160.41760659994677,68.95480212690356L16.150780481401252,32.57477772039254" style="fill:none;stroke:rgb(0,0,0);stroke-width:1;stroke-linecap:round"></path><path d="M-193.6758610937449,65.43500808725736L-160.4176121949174,68.95480032762278L-160.4176121949174,-2.312875472034715zM-193.6758610937449,-5.832667712400131L-193.6758610937449,65.43500808725736L-160.4176121949174,-2.312875472034715z" style="fill:rgb(153,221,255); fill-opacity: 0.4"></path><path d="M-160.4176124951357,68.95480029585003L-132.22483334716168,51.53855090831289L16.150780266953422,32.574778957730544z" style="fill:rgb(255,187,187); fill-opacity: 0.4"></path><path d="M-193.6758610937449,-5.832667712400121L-160.41761219491738,-2.312875472034702" style="fill:none;stroke:rgb(0,0,0);stroke-width:1;stroke-linecap:round"></path><path d="M-132.22483334716168,-19.729124891344597L-160.4176124951357,-2.312875503807463L16.150780266953422,32.574778957730544z" style="fill:rgb(255,187,187); fill-opacity: 0.4"></path><path d="M-160.41760659994677,-2.3128736727539336L16.150780481401252,32.57477772039254M132.34796224895334,-194.99138779014518L132.3479622489533,129.9827869769599M132.3479622489533,129.9827869769599L3.7914317433220326,209.39931359645408" style="fill:none;stroke:rgb(0,0,0);stroke-width:1;stroke-linecap:round"></path><path d="M-280.1953994408626,241.86212905842842L-113.18365222581738,138.6896739812367L-113.18365222581735,-283.4942828675696zM132.3479622489533,129.9827869769599L41.65827131445353,120.3849013094543L41.65827131445355,-204.58927345765076z" style="fill:rgb(238,238,238); fill-opacity: 0.4"></path><path d="M-160.4176124951357,-2.312875503807463L-160.4176124951357,68.95480029585003L16.150780266953422,32.574778957730544z" style="fill:rgb(255,187,187); fill-opacity: 0.4"></path><path d="M-146.44190112464486,-287.014075107935L-146.44190112464491,135.16988174087126L-313.4536483396901,-183.84162003074326zM132.34796224895334,-194.99138779014518L132.3479622489533,129.9827869769599L41.65827131445355,-204.58927345765076z" style="fill:rgb(238,238,238); fill-opacity: 0.4"></path><path d="M132.34796224895334,-194.99138779014518L41.65827131445355,-204.58927345765073M41.65827131445355,-204.58927345765073L-86.89825919117773,-125.17274683815656" style="fill:none;stroke:rgb(0,0,0);stroke-width:1;stroke-linecap:round"></path><path d="M-280.1953994408626,-180.32182779037782L-113.18365222581735,-283.4942828675696L-146.44190112464486,-287.014075107935zM-86.89825919117776,199.8014279289485L41.65827131445353,120.3849013094543L132.3479622489533,129.9827869769599z" style="fill:rgb(238,238,238); fill-opacity: 0.4"></path><path d="M132.34796224895334,-194.99138779014518L3.7914317433220592,-115.574861170651M467.71153122266,153.61204413211613L299.84258353640666,135.8461111973484M299.84258353640666,-155.8870269136541L299.84258353640666,135.8461111973484M299.84258353640666,135.8461111973484L184.4358743849848,207.1392610151295" style="fill:none;stroke:rgb(0,0,0);stroke-width:1;stroke-linecap:round"></path><path d="M-280.1953994408626,241.86212905842842L-313.4536483396902,238.34233681806302L-113.18365222581738,138.6896739812367zM-146.44190112464491,135.16988174087126L-313.4536483396902,238.34233681806302L-313.4536483396901,-183.84162003074326zM41.65827131445355,-204.58927345765076L41.65827131445353,120.3849013094543L-86.89825919117773,-125.17274683815658zM3.7914317433220193,209.39931359645408L132.3479622489533,129.9827869769599L132.34796224895334,-194.99138779014518zM467.71153122266,153.61204413211615L299.84258353640666,135.84611119734842L299.8425835364067,-155.88702691365407z" style="fill:rgb(238,238,238); fill-opacity: 0.4"></path><path d="M83.30921996704086,-72.90932805645633L-7.380470967458922,-82.50721372396193M-7.3804709674589155,-153.7748895236194L-7.380470967458922,-82.50721372396193M-7.380470967458922,-82.50721372396193L-35.573250115432955,-65.09096433642478M467.71153122266,-138.12109397888636L467.71153122266,153.61204413211613M467.71153122266,153.61204413211613L352.30482207123816,224.90519394989724" style="fill:none;stroke:rgb(0,0,0);stroke-width:1;stroke-linecap:round"></path><path d="M83.30921996704085,-72.90932805645632L-7.380470967458925,-82.50721372396191L-7.380470967458922,-153.77488952361938z" style="fill:rgb(153,221,255); fill-opacity: 0.4"></path><path d="M83.30921996704087,-144.17700385611383L-7.3804709674589155,-153.7748895236194M-7.3804709674589155,-153.7748895236194L-35.573250115432955,-136.35864013608227M467.71153122266,-138.12109397888636L299.84258353640666,-155.8870269136541M299.84258353640666,-155.8870269136541L184.43587438498483,-84.59387709587301" style="fill:none;stroke:rgb(0,0,0);stroke-width:1;stroke-linecap:round"></path><path d="M-280.1953994408626,-180.32182779037782L-280.1953994408626,241.86212905842842L-113.18365222581735,-283.4942828675696zM3.791431743322046,-115.57486117065099L132.34796224895334,-194.99138779014518L41.65827131445355,-204.58927345765076z" style="fill:rgb(238,238,238); fill-opacity: 0.4"></path><path d="M-35.57325011543296,-65.09096433642478L-7.380470967458925,-82.50721372396191L83.30921996704085,-72.90932805645632zM-7.380470967458922,-153.77488952361938L-7.380470967458925,-82.50721372396191L-35.573250115432955,-136.35864013608224z" style="fill:rgb(153,221,255); fill-opacity: 0.4"></path><path d="M83.30922079825216,-144.17701061925234L83.30922079825216,-72.90932726780018M83.30922079825216,-72.90932726780018L55.11644165027813,-55.49307788026305M83.30922079825216,-72.90932726780018L243.1654268887099,-70.46405229839901M83.30921996704087,-144.17700385611383L83.30921996704086,-72.90932805645633M83.30921996704086,-72.90932805645633L55.116440819066824,-55.49307866891919" style="fill:none;stroke:rgb(0,0,0);stroke-width:1;stroke-linecap:round"></path><path d="M83.30921996704085,-144.1770038561138L83.30921996704085,-72.90932805645632L-7.380470967458922,-153.77488952361938z" style="fill:rgb(153,221,255); fill-opacity: 0.4"></path><path d="M467.7115312226601,-138.12109397888634L467.71153122266,153.61204413211615L299.8425835364067,-155.88702691365407zM3.7914317433220193,209.39931359645408L-86.89825919117776,199.8014279289485L132.3479622489533,129.9827869769599z" style="fill:rgb(238,238,238); fill-opacity: 0.4"></path><path d="M-7.380470967458925,-82.50721372396191L-35.57325011543296,-65.09096433642478L-35.573250115432955,-136.35864013608224z" style="fill:rgb(153,221,255); fill-opacity: 0.4"></path><path d="M41.65827131445353,120.3849013094543L-86.89825919117776,199.8014279289485L-86.89825919117773,-125.17274683815658z" style="fill:rgb(238,238,238); fill-opacity: 0.4"></path><path d="M83.30921996704087,-144.17700385611383L55.116440819066824,-126.76075446857669M83.30922079825216,-144.17701061925234L55.11644165027813,-126.76076123171521M83.30922079825216,-144.17701061925234L243.1654268887099,-70.46405229839901" style="fill:none;stroke:rgb(0,0,0);stroke-width:1;stroke-linecap:round"></path><path d="M-313.4536483396901,-183.84162003074326L-280.1953994408626,-180.32182779037782L-146.44190112464486,-287.014075107935zM184.43587438498483,207.13926101512953L299.84258353640666,135.84611119734842L467.71153122266,153.61204413211615z" style="fill:rgb(238,238,238); fill-opacity: 0.4"></path><path d="M83.30921945421551,-144.17700391038719L83.30921945421551,-72.90932811072973L55.116440306241465,-55.4930787231926z" style="fill:rgb(255,187,187); fill-opacity: 0.4"></path><path d="M55.11644081906681,-55.493078668919196L83.30921996704085,-72.90932805645632L83.30921996704085,-144.1770038561138zM55.11644081906682,-126.76075446857665L83.30921996704085,-144.1770038561138L-7.380470967458922,-153.77488952361938z" style="fill:rgb(153,221,255); fill-opacity: 0.4"></path><path d="M-35.573250115432955,-136.35864013608227L-35.573250115432955,-65.09096433642478M-35.573250115432955,-65.09096433642478L55.116440819066824,-55.49307866891919" style="fill:none;stroke:rgb(0,0,0);stroke-width:1;stroke-linecap:round"></path><path d="M55.11644081906681,-55.493078668919196L-35.57325011543296,-65.09096433642478L83.30921996704085,-72.90932805645632z" style="fill:rgb(153,221,255); fill-opacity: 0.4"></path><path d="M-313.4536483396901,-183.84162003074323L-313.4536483396901,238.34233681806302M-313.4536483396901,238.34233681806302L-280.1953994408626,241.86212905842848" style="fill:none;stroke:rgb(0,0,0);stroke-width:1;stroke-linecap:round"></path><path d="M-35.573250115432955,-136.35864013608224L55.11644081906682,-126.76075446857665L-7.380470967458922,-153.77488952361938z" style="fill:rgb(153,221,255); fill-opacity: 0.4"></path><path d="M83.30921945421551,-72.90932811072973L83.30921945421551,-144.17700391038719L243.1654334364141,-70.46405119418827z" style="fill:rgb(255,187,187); fill-opacity: 0.4"></path><path d="M-35.573250115432955,-136.35864013608227L55.116440819066824,-126.76075446857669M-280.19539944086256,-180.32182779037782L-280.1953994408626,241.86212905842848" style="fill:none;stroke:rgb(0,0,0);stroke-width:1;stroke-linecap:round"></path><path d="M-35.573250115432955,-136.35864013608224L-35.57325011543296,-65.09096433642478L55.11644081906682,-126.76075446857665z" style="fill:rgb(153,221,255); fill-opacity: 0.4"></path><path d="M299.8425835364067,-155.88702691365407L299.84258353640666,135.84611119734842L184.43587438498486,-84.593877095873z" style="fill:rgb(238,238,238); fill-opacity: 0.4"></path><path d="M83.30921945421551,-144.17700391038719L55.116440306241465,-55.4930787231926L55.11644030624147,-126.76075452285005z" style="fill:rgb(255,187,187); fill-opacity: 0.4"></path><path d="M55.11644081906682,-126.76075446857665L55.11644081906681,-55.493078668919196L83.30921996704085,-144.1770038561138z" style="fill:rgb(153,221,255); fill-opacity: 0.4"></path><path d="M467.71153122266,-138.12109397888636L352.30482207123816,-66.82794416110526" style="fill:none;stroke:rgb(0,0,0);stroke-width:1;stroke-linecap:round"></path><path d="M55.116440306241465,-55.4930787231926L83.30921945421551,-72.90932811072973L243.1654334364141,-70.46405119418827z" style="fill:rgb(255,187,187); fill-opacity: 0.4"></path><path d="M-35.57325011543296,-65.09096433642478L55.11644081906681,-55.493078668919196L55.11644081906682,-126.76075446857665z" style="fill:rgb(153,221,255); fill-opacity: 0.4"></path><path d="M55.11644165027813,-55.49307788026305L55.11644165027813,-126.76076123171521M55.11644165027813,-55.49307788026305L243.1654268887099,-70.46405229839901M55.116440819066824,-126.76075446857669L55.116440819066824,-55.49307866891919" style="fill:none;stroke:rgb(0,0,0);stroke-width:1;stroke-linecap:round"></path><path d="M83.30921945421551,-144.17700391038719L55.11644030624147,-126.76075452285005L243.1654334364141,-70.46405119418827z" style="fill:rgb(255,187,187); fill-opacity: 0.4"></path><path d="M3.791431743322046,-115.57486117065099L3.7914317433220193,209.39931359645408L132.34796224895334,-194.99138779014518zM-313.4536483396902,238.34233681806302L-280.1953994408626,241.86212905842842L-280.1953994408626,-180.32182779037782z" style="fill:rgb(238,238,238); fill-opacity: 0.4"></path><path d="M55.11644165027813,-126.76076123171521L243.1654268887099,-70.46405229839901" style="fill:none;stroke:rgb(0,0,0);stroke-width:1;stroke-linecap:round"></path><path d="M-86.89825919117773,-125.17274683815658L3.791431743322046,-115.57486117065099L41.65827131445355,-204.58927345765076z" style="fill:rgb(238,238,238); fill-opacity: 0.4"></path><path d="M55.11644030624147,-126.76075452285005L55.116440306241465,-55.4930787231926L243.1654334364141,-70.46405119418827z" style="fill:rgb(255,187,187); fill-opacity: 0.4"></path><path d="M-86.89825919117773,-125.17274683815656L-86.89825919117776,199.8014279289485M-86.89825919117776,199.8014279289485L3.7914317433220326,209.39931359645408" style="fill:none;stroke:rgb(0,0,0);stroke-width:1;stroke-linecap:round"></path><path d="M352.3048220712381,224.90519394989727L467.71153122266,153.61204413211615L467.7115312226601,-138.12109397888634zM-313.4536483396901,-183.84162003074326L-313.4536483396902,238.34233681806302L-280.1953994408626,-180.32182779037782zM299.84258353640666,135.84611119734842L184.43587438498483,207.13926101512953L184.43587438498486,-84.593877095873z" style="fill:rgb(238,238,238); fill-opacity: 0.4"></path><path d="M3.7914317433220592,-115.574861170651L3.7914317433220326,209.39931359645408" style="fill:none;stroke:rgb(0,0,0);stroke-width:1;stroke-linecap:round"></path><path d="M352.30482207123816,-66.82794416110525L467.7115312226601,-138.12109397888634L299.8425835364067,-155.88702691365407zM352.3048220712381,224.90519394989727L184.43587438498483,207.13926101512953L467.71153122266,153.61204413211615zM-86.89825919117776,199.8014279289485L3.7914317433220193,209.39931359645408L3.791431743322046,-115.57486117065099z" style="fill:rgb(238,238,238); fill-opacity: 0.4"></path><path d="M-313.4536483396901,-183.84162003074323L-280.19539944086256,-180.32182779037782" style="fill:none;stroke:rgb(0,0,0);stroke-width:1;stroke-linecap:round"></path><path d="M-86.89825919117773,-125.17274683815658L-86.89825919117776,199.8014279289485L3.791431743322046,-115.57486117065099z" style="fill:rgb(238,238,238); fill-opacity: 0.4"></path><path d="M727.34986004262,173.80789248492408L643.4153861994934,164.92492601754023M643.4153861994934,-53.87492756571164L643.4153861994934,164.92492601754023M643.4153861994934,164.92492601754023L608.6745054310223,186.38630235900186M459.54365377507787,48.63449640981292L560.4535278087136,59.31400610619879M-86.89825919117773,-125.17274683815656L3.7914317433220592,-115.574861170651M184.43587438498483,-84.59387709587301L184.4358743849848,207.1392610151295M184.4358743849848,207.1392610151295L352.30482207123816,224.90519394989724" style="fill:none;stroke:rgb(0,0,0);stroke-width:1;stroke-linecap:round"></path><path d="M184.43587438498486,-84.593877095873L352.30482207123816,-66.82794416110525L299.8425835364067,-155.88702691365407zM727.3498600426199,173.8078924849241L643.4153861994932,164.92492601754023L643.4153861994932,-53.874927565711644z" style="fill:rgb(238,238,238); fill-opacity: 0.4"></path><path d="M727.34986004262,-44.99196109832778L727.34986004262,173.80789248492408M727.34986004262,173.80789248492408L692.608979274149,195.26926882638574" style="fill:none;stroke:rgb(0,0,0);stroke-width:1;stroke-linecap:round"></path><path d="M608.6745054310223,186.3863023590019L643.4153861994932,164.92492601754023L727.3498600426199,173.8078924849241zM352.30482207123816,-66.82794416110525L352.3048220712381,224.90519394989727L467.7115312226601,-138.12109397888634z" style="fill:rgb(238,238,238); fill-opacity: 0.4"></path><path d="M565.0566665782115,40.45462392506717L555.8503890392157,46.141854144850505L618.4767053780541,65.45472418162068zM553.0054925337678,70.03255095040396L560.4535278087136,79.11058271721477L618.4767053780541,65.45472418162068z" style="fill:rgb(0,0,0)"></path><path d="M727.34986004262,-44.99196109832778L643.4153861994934,-53.87492756571164M643.4153861994934,-53.87492756571164L608.6745054310223,-32.41355122425001" style="fill:none;stroke:rgb(0,0,0);stroke-width:1;stroke-linecap:round"></path><path d="M727.3498600426199,-44.991961098327785L727.3498600426199,173.8078924849241L643.4153861994932,-53.874927565711644z" style="fill:rgb(238,238,238); fill-opacity: 0.4"></path><path d="M555.8503890392157,46.141854144850505L553.0054925337678,70.03255095040396L618.4767053780541,65.45472418162068z" style="fill:rgb(0,0,0)"></path><path d="M643.4153861994932,-53.874927565711644L643.4153861994932,164.92492601754023L608.6745054310223,-32.41355122425zM643.4153861994932,164.92492601754023L608.6745054310223,186.3863023590019L608.6745054310223,-32.41355122425zM692.608979274149,195.26926882638574L608.6745054310223,186.3863023590019L727.3498600426199,173.8078924849241z" style="fill:rgb(238,238,238); fill-opacity: 0.4"></path><path d="M352.30482207123816,-66.82794416110526L352.30482207123816,224.90519394989724" style="fill:none;stroke:rgb(0,0,0);stroke-width:1;stroke-linecap:round"></path><path d="M692.608979274149,195.26926882638574L727.3498600426199,173.8078924849241L727.3498600426199,-44.991961098327785z" style="fill:rgb(238,238,238); fill-opacity: 0.4"></path><path d="M608.6745054310223,-32.41355122425001L608.6745054310223,186.38630235900186M608.6745054310223,186.38630235900186L692.608979274149,195.26926882638574" style="fill:none;stroke:rgb(0,0,0);stroke-width:1;stroke-linecap:round"></path><path d="M184.43587438498483,207.13926101512953L352.3048220712381,224.90519394989727L352.30482207123816,-66.82794416110525zM184.43587438498486,-84.593877095873L184.43587438498483,207.13926101512953L352.30482207123816,-66.82794416110525z" style="fill:rgb(238,238,238); fill-opacity: 0.4"></path><path d="M184.43587438498483,-84.59387709587301L352.30482207123816,-66.82794416110526M727.34986004262,-44.99196109832778L692.608979274149,-23.530584756866137" style="fill:none;stroke:rgb(0,0,0);stroke-width:1;stroke-linecap:round"></path><path d="M692.608979274149,-23.53058475686614L727.3498600426199,-44.991961098327785L643.4153861994932,-53.874927565711644z" style="fill:rgb(238,238,238); fill-opacity: 0.4"></path><path d="M692.608979274149,-23.530584756866137L692.608979274149,195.26926882638574" style="fill:none;stroke:rgb(0,0,0);stroke-width:1;stroke-linecap:round"></path><path d="M608.6745054310223,186.3863023590019L692.608979274149,195.26926882638574L692.608979274149,-23.53058475686614zM608.6745054310223,-32.41355122425L692.608979274149,-23.53058475686614L643.4153861994932,-53.874927565711644zM692.608979274149,-23.53058475686614L692.608979274149,195.26926882638574L727.3498600426199,-44.991961098327785zM608.6745054310223,-32.41355122425L608.6745054310223,186.3863023590019L692.608979274149,-23.53058475686614z" style="fill:rgb(238,238,238); fill-opacity: 0.4"></path><path d="M608.6745054310223,-32.41355122425001L692.608979274149,-23.530584756866137" style="fill:none;stroke:rgb(0,0,0);stroke-width:1;stroke-linecap:round"></path></svg>