<?xml version="1.0" encoding="utf-8" standalone="no"?>
<!DOCTYPE svg PUBLIC "-//W3C//DTD SVG 1.1//EN"
  "http://www.w3.org/Graphics/SVG/1.1/DTD/svg11.dtd">
<svg xmlns:xlink="http://www.w3.org/1999/xlink" width="792pt" height="360pt" viewBox="0 0 792 360" xmlns="http://www.w3.org/2000/svg" version="1.1">
 <metadata>
  <rdf:RDF xmlns:dc="http://purl.org/dc/elements/1.1/" xmlns:cc="http://creativecommons.org/ns#" xmlns:rdf="http://www.w3.org/1999/02/22-rdf-syntax-ns#">
   <cc:Work>
    <dc:type rdf:resource="http://purl.org/dc/dcmitype/StillImage"/>
    <dc:date>2024-02-25T10:22:50.722063</dc:date>
    <dc:format>image/svg+xml</dc:format>
    <dc:creator>
     <cc:Agent>
      <dc:title>Matplotlib v3.5.3, https://matplotlib.org/</dc:title>
     </cc:Agent>
    </dc:creator>
   </cc:Work>
  </rdf:RDF>
 </metadata>
 <defs>
  <style type="text/css">*{stroke-linejoin: round; stroke-linecap: butt}</style>
 </defs>
 <g id="figure_1">
  <g id="patch_1">
   <path d="M 0 360 
L 792 360 
L 792 0 
L 0 0 
z
" style="fill: #ffffff"/>
  </g>
  <g id="axes_1">
   <g id="PolyCollection_1">
    <defs>
     <path id="m097ab8ac0a" d="M 78.4985 -119.6084 
L 78.4985 -62.3756 
L 138.059682 -62.3756 
L 138.059682 -119.6084 
L 138.059682 -119.6084 
L 78.4985 -119.6084 
z
" style="stroke: #d55e00; stroke-opacity: 0.3"/>
    </defs>
    <g clip-path="url(#p53196b81fe)">
     <use xlink:href="#m097ab8ac0a" x="0" y="360" style="fill: #d55e00; fill-opacity: 0.3; stroke: #d55e00; stroke-opacity: 0.3"/>
    </g>
   </g>
   <g id="PolyCollection_2">
    <defs>
     <path id="m3c2f9e5769" d="M 78.4985 -183.2004 
L 78.4985 -125.9676 
L 138.059682 -125.9676 
L 138.059682 -183.2004 
L 138.059682 -183.2004 
L 78.4985 -183.2004 
z
" style="stroke: #d55e00; stroke-opacity: 0.3"/>
    </defs>
    <g clip-path="url(#p53196b81fe)">
     <use xlink:href="#m3c2f9e5769" x="0" y="360" style="fill: #d55e00; fill-opacity: 0.3; stroke: #d55e00; stroke-opacity: 0.3"/>
    </g>
   </g>
   <g id="PolyCollection_3">
    <defs>
     <path id="ma25c2196a4" d="M 78.4985 -246.7924 
L 78.4985 -189.5596 
L 138.059682 -189.5596 
L 138.059682 -246.7924 
L 138.059682 -246.7924 
L 78.4985 -246.7924 
z
" style="stroke: #cc79a7; stroke-opacity: 0.3"/>
    </defs>
    <g clip-path="url(#p53196b81fe)">
     <use xlink:href="#ma25c2196a4" x="0" y="360" style="fill: #cc79a7; fill-opacity: 0.3; stroke: #cc79a7; stroke-opacity: 0.3"/>
    </g>
   </g>
   <g id="PolyCollection_4">
    <defs>
     <path id="m64882f69c1" d="M 78.4985 -310.3844 
L 78.4985 -253.1516 
L 138.059682 -253.1516 
L 138.059682 -310.3844 
L 138.059682 -310.3844 
L 78.4985 -310.3844 
z
" style="stroke: #cc79a7; stroke-opacity: 0.3"/>
    </defs>
    <g clip-path="url(#p53196b81fe)">
     <use xlink:href="#m64882f69c1" x="0" y="360" style="fill: #cc79a7; fill-opacity: 0.3; stroke: #cc79a7; stroke-opacity: 0.3"/>
    </g>
   </g>
   <g id="PolyCollection_5">
    <defs>
     <path id="mf77f25a494" d="M 144.677591 -119.6084 
L 144.677591 -62.3756 
L 204.238773 -62.3756 
L 204.238773 -119.6084 
L 204.238773 -119.6084 
L 144.677591 -119.6084 
z
" style="stroke: #d55e00; stroke-opacity: 0.3"/>
    </defs>
    <g clip-path="url(#p53196b81fe)">
     <use xlink:href="#mf77f25a494" x="0" y="360" style="fill: #d55e00; fill-opacity: 0.3; stroke: #d55e00; stroke-opacity: 0.3"/>
    </g>
   </g>
   <g id="PolyCollection_6">
    <defs>
     <path id="m5476df8677" d="M 144.677591 -183.2004 
L 144.677591 -125.9676 
L 204.238773 -125.9676 
L 204.238773 -183.2004 
L 204.238773 -183.2004 
L 144.677591 -183.2004 
z
" style="stroke: #d55e00; stroke-opacity: 0.3"/>
    </defs>
    <g clip-path="url(#p53196b81fe)">
     <use xlink:href="#m5476df8677" x="0" y="360" style="fill: #d55e00; fill-opacity: 0.3; stroke: #d55e00; stroke-opacity: 0.3"/>
    </g>
   </g>
   <g id="PolyCollection_7">
    <defs>
     <path id="m19170175f3" d="M 144.677591 -246.7924 
L 144.677591 -189.5596 
L 204.238773 -189.5596 
L 204.238773 -246.7924 
L 204.238773 -246.7924 
L 144.677591 -246.7924 
z
" style="stroke: #cc79a7; stroke-opacity: 0.3"/>
    </defs>
    <g clip-path="url(#p53196b81fe)">
     <use xlink:href="#m19170175f3" x="0" y="360" style="fill: #cc79a7; fill-opacity: 0.3; stroke: #cc79a7; stroke-opacity: 0.3"/>
    </g>
   </g>
   <g id="PolyCollection_8">
    <defs>
     <path id="m19377f773d" d="M 144.677591 -310.3844 
L 144.677591 -253.1516 
L 204.238773 -253.1516 
L 204.238773 -310.3844 
L 204.238773 -310.3844 
L 144.677591 -310.3844 
z
" style="stroke: #cc79a7; stroke-opacity: 0.3"/>
    </defs>
    <g clip-path="url(#p53196b81fe)">
     <use xlink:href="#m19377f773d" x="0" y="360" style="fill: #cc79a7; fill-opacity: 0.3; stroke: #cc79a7; stroke-opacity: 0.3"/>
    </g>
   </g>
   <g id="PolyCollection_9">
    <defs>
     <path id="m7506b30d01" d="M 210.856682 -119.6084 
L 210.856682 -62.3756 
L 270.417864 -62.3756 
L 270.417864 -119.6084 
L 270.417864 -119.6084 
L 210.856682 -119.6084 
z
" style="stroke: #56b4e9; stroke-opacity: 0.3"/>
    </defs>
    <g clip-path="url(#p53196b81fe)">
     <use xlink:href="#m7506b30d01" x="0" y="360" style="fill: #56b4e9; fill-opacity: 0.3; stroke: #56b4e9; stroke-opacity: 0.3"/>
    </g>
   </g>
   <g id="PolyCollection_10">
    <defs>
     <path id="m45b52bea04" d="M 210.856682 -183.2004 
L 210.856682 -125.9676 
L 270.417864 -125.9676 
L 270.417864 -183.2004 
L 270.417864 -183.2004 
L 210.856682 -183.2004 
z
" style="stroke: #56b4e9; stroke-opacity: 0.3"/>
    </defs>
    <g clip-path="url(#p53196b81fe)">
     <use xlink:href="#m45b52bea04" x="0" y="360" style="fill: #56b4e9; fill-opacity: 0.3; stroke: #56b4e9; stroke-opacity: 0.3"/>
    </g>
   </g>
   <g id="PolyCollection_11">
    <defs>
     <path id="mc1eec9e712" d="M 210.856682 -246.7924 
L 210.856682 -189.5596 
L 270.417864 -189.5596 
L 270.417864 -246.7924 
L 270.417864 -246.7924 
L 210.856682 -246.7924 
z
" style="stroke: #009e73; stroke-opacity: 0.3"/>
    </defs>
    <g clip-path="url(#p53196b81fe)">
     <use xlink:href="#mc1eec9e712" x="0" y="360" style="fill: #009e73; fill-opacity: 0.3; stroke: #009e73; stroke-opacity: 0.3"/>
    </g>
   </g>
   <g id="PolyCollection_12">
    <defs>
     <path id="mb30262afa5" d="M 210.856682 -310.3844 
L 210.856682 -253.1516 
L 270.417864 -253.1516 
L 270.417864 -310.3844 
L 270.417864 -310.3844 
L 210.856682 -310.3844 
z
" style="stroke: #009e73; stroke-opacity: 0.3"/>
    </defs>
    <g clip-path="url(#p53196b81fe)">
     <use xlink:href="#mb30262afa5" x="0" y="360" style="fill: #009e73; fill-opacity: 0.3; stroke: #009e73; stroke-opacity: 0.3"/>
    </g>
   </g>
   <g id="PolyCollection_13">
    <defs>
     <path id="m288ea2ba5e" d="M 277.035773 -119.6084 
L 277.035773 -62.3756 
L 336.596955 -62.3756 
L 336.596955 -119.6084 
L 336.596955 -119.6084 
L 277.035773 -119.6084 
z
" style="stroke: #56b4e9; stroke-opacity: 0.3"/>
    </defs>
    <g clip-path="url(#p53196b81fe)">
     <use xlink:href="#m288ea2ba5e" x="0" y="360" style="fill: #56b4e9; fill-opacity: 0.3; stroke: #56b4e9; stroke-opacity: 0.3"/>
    </g>
   </g>
   <g id="PolyCollection_14">
    <defs>
     <path id="m6612b239d5" d="M 277.035773 -183.2004 
L 277.035773 -125.9676 
L 336.596955 -125.9676 
L 336.596955 -183.2004 
L 336.596955 -183.2004 
L 277.035773 -183.2004 
z
" style="stroke: #56b4e9; stroke-opacity: 0.3"/>
    </defs>
    <g clip-path="url(#p53196b81fe)">
     <use xlink:href="#m6612b239d5" x="0" y="360" style="fill: #56b4e9; fill-opacity: 0.3; stroke: #56b4e9; stroke-opacity: 0.3"/>
    </g>
   </g>
   <g id="PolyCollection_15">
    <defs>
     <path id="ma57c473adf" d="M 277.035773 -246.7924 
L 277.035773 -189.5596 
L 336.596955 -189.5596 
L 336.596955 -246.7924 
L 336.596955 -246.7924 
L 277.035773 -246.7924 
z
" style="stroke: #009e73; stroke-opacity: 0.3"/>
    </defs>
    <g clip-path="url(#p53196b81fe)">
     <use xlink:href="#ma57c473adf" x="0" y="360" style="fill: #009e73; fill-opacity: 0.3; stroke: #009e73; stroke-opacity: 0.3"/>
    </g>
   </g>
   <g id="PolyCollection_16">
    <defs>
     <path id="m3f00bda044" d="M 277.035773 -310.3844 
L 277.035773 -253.1516 
L 336.596955 -253.1516 
L 336.596955 -310.3844 
L 336.596955 -310.3844 
L 277.035773 -310.3844 
z
" style="stroke: #009e73; stroke-opacity: 0.3"/>
    </defs>
    <g clip-path="url(#p53196b81fe)">
     <use xlink:href="#m3f00bda044" x="0" y="360" style="fill: #009e73; fill-opacity: 0.3; stroke: #009e73; stroke-opacity: 0.3"/>
    </g>
   </g>
   <g id="PolyCollection_17">
    <defs>
     <path id="mb0a4467a77" d="M 607.931227 -183.2004 
L 607.931227 -125.9676 
L 667.492409 -125.9676 
L 667.492409 -183.2004 
L 667.492409 -183.2004 
L 607.931227 -183.2004 
z
" style="stroke: #d55e00; stroke-opacity: 0.3"/>
    </defs>
    <g clip-path="url(#p53196b81fe)">
     <use xlink:href="#mb0a4467a77" x="0" y="360" style="fill: #d55e00; fill-opacity: 0.3; stroke: #d55e00; stroke-opacity: 0.3"/>
    </g>
   </g>
   <g id="PolyCollection_18">
    <defs>
     <path id="mcbadf2bf52" d="M 607.931227 -246.7924 
L 607.931227 -189.5596 
L 667.492409 -189.5596 
L 667.492409 -246.7924 
L 667.492409 -246.7924 
L 607.931227 -246.7924 
z
" style="stroke: #cc79a7; stroke-opacity: 0.3"/>
    </defs>
    <g clip-path="url(#p53196b81fe)">
     <use xlink:href="#mcbadf2bf52" x="0" y="360" style="fill: #cc79a7; fill-opacity: 0.3; stroke: #cc79a7; stroke-opacity: 0.3"/>
    </g>
   </g>
   <g id="PolyCollection_19">
    <defs>
     <path id="m31f4d1f826" d="M 674.110318 -183.2004 
L 674.110318 -125.9676 
L 733.6715 -125.9676 
L 733.6715 -183.2004 
L 733.6715 -183.2004 
L 674.110318 -183.2004 
z
" style="stroke: #56b4e9; stroke-opacity: 0.3"/>
    </defs>
    <g clip-path="url(#p53196b81fe)">
     <use xlink:href="#m31f4d1f826" x="0" y="360" style="fill: #56b4e9; fill-opacity: 0.3; stroke: #56b4e9; stroke-opacity: 0.3"/>
    </g>
   </g>
   <g id="PolyCollection_20">
    <defs>
     <path id="m64a5670e37" d="M 674.110318 -246.7924 
L 674.110318 -189.5596 
L 733.6715 -189.5596 
L 733.6715 -246.7924 
L 733.6715 -246.7924 
L 674.110318 -246.7924 
z
" style="stroke: #009e73; stroke-opacity: 0.3"/>
    </defs>
    <g clip-path="url(#p53196b81fe)">
     <use xlink:href="#m64a5670e37" x="0" y="360" style="fill: #009e73; fill-opacity: 0.3; stroke: #009e73; stroke-opacity: 0.3"/>
    </g>
   </g>
   <g id="Quiver_1">
    <path d="M 372.995455 170.890112 
L 552.054439 170.890112 
L 549.324552 165.430337 
L 576.623427 173.62 
L 549.324552 181.809662 
L 552.054439 176.349887 
L 372.995455 176.349887 
L 372.995455 170.890112 
" clip-path="url(#p53196b81fe)"/>
   </g>
   <g id="line2d_1">
    <path d="M 78.4985 297.6244 
L 78.4985 240.3916 
L 138.059682 240.3916 
L 138.059682 297.6244 
L 78.4985 297.6244 
" clip-path="url(#p53196b81fe)" style="fill: none; stroke: #000000; stroke-width: 1.5; stroke-linecap: square"/>
   </g>
   <g id="line2d_2">
    <path d="M 78.4985 234.0324 
L 78.4985 176.7996 
L 138.059682 176.7996 
L 138.059682 234.0324 
L 78.4985 234.0324 
" clip-path="url(#p53196b81fe)" style="fill: none; stroke: #000000; stroke-width: 1.5; stroke-linecap: square"/>
   </g>
   <g id="line2d_3">
    <path d="M 78.4985 170.4404 
L 78.4985 113.2076 
L 138.059682 113.2076 
L 138.059682 170.4404 
L 78.4985 170.4404 
" clip-path="url(#p53196b81fe)" style="fill: none; stroke: #000000; stroke-width: 1.5; stroke-linecap: square"/>
   </g>
   <g id="line2d_4">
    <path d="M 78.4985 106.8484 
L 78.4985 49.6156 
L 138.059682 49.6156 
L 138.059682 106.8484 
L 78.4985 106.8484 
" clip-path="url(#p53196b81fe)" style="fill: none; stroke: #000000; stroke-width: 1.5; stroke-linecap: square"/>
   </g>
   <g id="line2d_5">
    <path d="M 144.677591 297.6244 
L 144.677591 240.3916 
L 204.238773 240.3916 
L 204.238773 297.6244 
L 144.677591 297.6244 
" clip-path="url(#p53196b81fe)" style="fill: none; stroke: #000000; stroke-width: 1.5; stroke-linecap: square"/>
   </g>
   <g id="line2d_6">
    <path d="M 144.677591 234.0324 
L 144.677591 176.7996 
L 204.238773 176.7996 
L 204.238773 234.0324 
L 144.677591 234.0324 
" clip-path="url(#p53196b81fe)" style="fill: none; stroke: #000000; stroke-width: 1.5; stroke-linecap: square"/>
   </g>
   <g id="line2d_7">
    <path d="M 144.677591 170.4404 
L 144.677591 113.2076 
L 204.238773 113.2076 
L 204.238773 170.4404 
L 144.677591 170.4404 
" clip-path="url(#p53196b81fe)" style="fill: none; stroke: #000000; stroke-width: 1.5; stroke-linecap: square"/>
   </g>
   <g id="line2d_8">
    <path d="M 144.677591 106.8484 
L 144.677591 49.6156 
L 204.238773 49.6156 
L 204.238773 106.8484 
L 144.677591 106.8484 
" clip-path="url(#p53196b81fe)" style="fill: none; stroke: #000000; stroke-width: 1.5; stroke-linecap: square"/>
   </g>
   <g id="line2d_9">
    <path d="M 210.856682 297.6244 
L 210.856682 240.3916 
L 270.417864 240.3916 
L 270.417864 297.6244 
L 210.856682 297.6244 
" clip-path="url(#p53196b81fe)" style="fill: none; stroke: #000000; stroke-width: 1.5; stroke-linecap: square"/>
   </g>
   <g id="line2d_10">
    <path d="M 210.856682 234.0324 
L 210.856682 176.7996 
L 270.417864 176.7996 
L 270.417864 234.0324 
L 210.856682 234.0324 
" clip-path="url(#p53196b81fe)" style="fill: none; stroke: #000000; stroke-width: 1.5; stroke-linecap: square"/>
   </g>
   <g id="line2d_11">
    <path d="M 210.856682 170.4404 
L 210.856682 113.2076 
L 270.417864 113.2076 
L 270.417864 170.4404 
L 210.856682 170.4404 
" clip-path="url(#p53196b81fe)" style="fill: none; stroke: #000000; stroke-width: 1.5; stroke-linecap: square"/>
   </g>
   <g id="line2d_12">
    <path d="M 210.856682 106.8484 
L 210.856682 49.6156 
L 270.417864 49.6156 
L 270.417864 106.8484 
L 210.856682 106.8484 
" clip-path="url(#p53196b81fe)" style="fill: none; stroke: #000000; stroke-width: 1.5; stroke-linecap: square"/>
   </g>
   <g id="line2d_13">
    <path d="M 277.035773 297.6244 
L 277.035773 240.3916 
L 336.596955 240.3916 
L 336.596955 297.6244 
L 277.035773 297.6244 
" clip-path="url(#p53196b81fe)" style="fill: none; stroke: #000000; stroke-width: 1.5; stroke-linecap: square"/>
   </g>
   <g id="line2d_14">
    <path d="M 277.035773 234.0324 
L 277.035773 176.7996 
L 336.596955 176.7996 
L 336.596955 234.0324 
L 277.035773 234.0324 
" clip-path="url(#p53196b81fe)" style="fill: none; stroke: #000000; stroke-width: 1.5; stroke-linecap: square"/>
   </g>
   <g id="line2d_15">
    <path d="M 277.035773 170.4404 
L 277.035773 113.2076 
L 336.596955 113.2076 
L 336.596955 170.4404 
L 277.035773 170.4404 
" clip-path="url(#p53196b81fe)" style="fill: none; stroke: #000000; stroke-width: 1.5; stroke-linecap: square"/>
   </g>
   <g id="line2d_16">
    <path d="M 277.035773 106.8484 
L 277.035773 49.6156 
L 336.596955 49.6156 
L 336.596955 106.8484 
L 277.035773 106.8484 
" clip-path="url(#p53196b81fe)" style="fill: none; stroke: #000000; stroke-width: 1.5; stroke-linecap: square"/>
   </g>
   <g id="line2d_17">
    <path d="M 66.917159 308.753 
L 66.917159 38.487 
L 348.178295 38.487 
L 348.178295 308.753 
L 66.917159 308.753 
" clip-path="url(#p53196b81fe)" style="fill: none; stroke: #000000; stroke-width: 1.5; stroke-linecap: square"/>
   </g>
   <g id="line2d_18">
    <path d="M 607.931227 234.0324 
L 607.931227 176.7996 
L 667.492409 176.7996 
L 667.492409 234.0324 
L 607.931227 234.0324 
" clip-path="url(#p53196b81fe)" style="fill: none; stroke: #000000; stroke-width: 1.5; stroke-linecap: square"/>
   </g>
   <g id="line2d_19">
    <path d="M 607.931227 170.4404 
L 607.931227 113.2076 
L 667.492409 113.2076 
L 667.492409 170.4404 
L 607.931227 170.4404 
" clip-path="url(#p53196b81fe)" style="fill: none; stroke: #000000; stroke-width: 1.5; stroke-linecap: square"/>
   </g>
   <g id="line2d_20">
    <path d="M 674.110318 234.0324 
L 674.110318 176.7996 
L 733.6715 176.7996 
L 733.6715 234.0324 
L 674.110318 234.0324 
" clip-path="url(#p53196b81fe)" style="fill: none; stroke: #000000; stroke-width: 1.5; stroke-linecap: square"/>
   </g>
   <g id="line2d_21">
    <path d="M 674.110318 170.4404 
L 674.110318 113.2076 
L 733.6715 113.2076 
L 733.6715 170.4404 
L 674.110318 170.4404 
" clip-path="url(#p53196b81fe)" style="fill: none; stroke: #000000; stroke-width: 1.5; stroke-linecap: square"/>
   </g>
   <g id="line2d_22">
    <path d="M 596.349886 245.161 
L 596.349886 102.079 
L 745.252841 102.079 
L 745.252841 245.161 
L 596.349886 245.161 
" clip-path="url(#p53196b81fe)" style="fill: none; stroke: #000000; stroke-width: 1.5; stroke-linecap: square"/>
   </g>
   <g id="text_1">
    <!-- 0 -->
    <g transform="translate(103.189091 273.423)scale(0.16 -0.16)">
     <defs>
      <path id="DejaVuSans-30" d="M 2034 4250 
Q 1547 4250 1301 3770 
Q 1056 3291 1056 2328 
Q 1056 1369 1301 889 
Q 1547 409 2034 409 
Q 2525 409 2770 889 
Q 3016 1369 3016 2328 
Q 3016 3291 2770 3770 
Q 2525 4250 2034 4250 
z
M 2034 4750 
Q 2819 4750 3233 4129 
Q 3647 3509 3647 2328 
Q 3647 1150 3233 529 
Q 2819 -91 2034 -91 
Q 1250 -91 836 529 
Q 422 1150 422 2328 
Q 422 3509 836 4129 
Q 1250 4750 2034 4750 
z
" transform="scale(0.015625)"/>
     </defs>
     <use xlink:href="#DejaVuSans-30"/>
    </g>
   </g>
   <g id="text_2">
    <!-- 0 -->
    <g transform="translate(103.189091 209.831)scale(0.16 -0.16)">
     <use xlink:href="#DejaVuSans-30"/>
    </g>
   </g>
   <g id="text_3">
    <!-- 4 -->
    <g transform="translate(103.189091 146.239)scale(0.16 -0.16)">
     <defs>
      <path id="DejaVuSans-34" d="M 2419 4116 
L 825 1625 
L 2419 1625 
L 2419 4116 
z
M 2253 4666 
L 3047 4666 
L 3047 1625 
L 3713 1625 
L 3713 1100 
L 3047 1100 
L 3047 0 
L 2419 0 
L 2419 1100 
L 313 1100 
L 313 1709 
L 2253 4666 
z
" transform="scale(0.015625)"/>
     </defs>
     <use xlink:href="#DejaVuSans-34"/>
    </g>
   </g>
   <g id="text_4">
    <!-- 2 -->
    <g transform="translate(103.189091 82.647)scale(0.16 -0.16)">
     <defs>
      <path id="DejaVuSans-32" d="M 1228 531 
L 3431 531 
L 3431 0 
L 469 0 
L 469 531 
Q 828 903 1448 1529 
Q 2069 2156 2228 2338 
Q 2531 2678 2651 2914 
Q 2772 3150 2772 3378 
Q 2772 3750 2511 3984 
Q 2250 4219 1831 4219 
Q 1534 4219 1204 4116 
Q 875 4013 500 3803 
L 500 4441 
Q 881 4594 1212 4672 
Q 1544 4750 1819 4750 
Q 2544 4750 2975 4387 
Q 3406 4025 3406 3419 
Q 3406 3131 3298 2873 
Q 3191 2616 2906 2266 
Q 2828 2175 2409 1742 
Q 1991 1309 1228 531 
z
" transform="scale(0.015625)"/>
     </defs>
     <use xlink:href="#DejaVuSans-32"/>
    </g>
   </g>
   <g id="text_5">
    <!-- 0 -->
    <g transform="translate(169.368182 273.423)scale(0.16 -0.16)">
     <use xlink:href="#DejaVuSans-30"/>
    </g>
   </g>
   <g id="text_6">
    <!-- 9 -->
    <g transform="translate(169.368182 209.831)scale(0.16 -0.16)">
     <defs>
      <path id="DejaVuSans-39" d="M 703 97 
L 703 672 
Q 941 559 1184 500 
Q 1428 441 1663 441 
Q 2288 441 2617 861 
Q 2947 1281 2994 2138 
Q 2813 1869 2534 1725 
Q 2256 1581 1919 1581 
Q 1219 1581 811 2004 
Q 403 2428 403 3163 
Q 403 3881 828 4315 
Q 1253 4750 1959 4750 
Q 2769 4750 3195 4129 
Q 3622 3509 3622 2328 
Q 3622 1225 3098 567 
Q 2575 -91 1691 -91 
Q 1453 -91 1209 -44 
Q 966 3 703 97 
z
M 1959 2075 
Q 2384 2075 2632 2365 
Q 2881 2656 2881 3163 
Q 2881 3666 2632 3958 
Q 2384 4250 1959 4250 
Q 1534 4250 1286 3958 
Q 1038 3666 1038 3163 
Q 1038 2656 1286 2365 
Q 1534 2075 1959 2075 
z
" transform="scale(0.015625)"/>
     </defs>
     <use xlink:href="#DejaVuSans-39"/>
    </g>
   </g>
   <g id="text_7">
    <!-- 1 -->
    <g transform="translate(169.368182 146.239)scale(0.16 -0.16)">
     <defs>
      <path id="DejaVuSans-31" d="M 794 531 
L 1825 531 
L 1825 4091 
L 703 3866 
L 703 4441 
L 1819 4666 
L 2450 4666 
L 2450 531 
L 3481 531 
L 3481 0 
L 794 0 
L 794 531 
z
" transform="scale(0.015625)"/>
     </defs>
     <use xlink:href="#DejaVuSans-31"/>
    </g>
   </g>
   <g id="text_8">
    <!-- 4 -->
    <g transform="translate(169.368182 82.647)scale(0.16 -0.16)">
     <use xlink:href="#DejaVuSans-34"/>
    </g>
   </g>
   <g id="text_9">
    <!-- 3 -->
    <g transform="translate(235.547273 273.423)scale(0.16 -0.16)">
     <defs>
      <path id="DejaVuSans-33" d="M 2597 2516 
Q 3050 2419 3304 2112 
Q 3559 1806 3559 1356 
Q 3559 666 3084 287 
Q 2609 -91 1734 -91 
Q 1441 -91 1130 -33 
Q 819 25 488 141 
L 488 750 
Q 750 597 1062 519 
Q 1375 441 1716 441 
Q 2309 441 2620 675 
Q 2931 909 2931 1356 
Q 2931 1769 2642 2001 
Q 2353 2234 1838 2234 
L 1294 2234 
L 1294 2753 
L 1863 2753 
Q 2328 2753 2575 2939 
Q 2822 3125 2822 3475 
Q 2822 3834 2567 4026 
Q 2313 4219 1838 4219 
Q 1578 4219 1281 4162 
Q 984 4106 628 3988 
L 628 4550 
Q 988 4650 1302 4700 
Q 1616 4750 1894 4750 
Q 2613 4750 3031 4423 
Q 3450 4097 3450 3541 
Q 3450 3153 3228 2886 
Q 3006 2619 2597 2516 
z
" transform="scale(0.015625)"/>
     </defs>
     <use xlink:href="#DejaVuSans-33"/>
    </g>
   </g>
   <g id="text_10">
    <!-- 9 -->
    <g transform="translate(235.547273 209.831)scale(0.16 -0.16)">
     <use xlink:href="#DejaVuSans-39"/>
    </g>
   </g>
   <g id="text_11">
    <!-- 2 -->
    <g transform="translate(235.547273 146.239)scale(0.16 -0.16)">
     <use xlink:href="#DejaVuSans-32"/>
    </g>
   </g>
   <g id="text_12">
    <!-- 1 -->
    <g transform="translate(235.547273 82.647)scale(0.16 -0.16)">
     <use xlink:href="#DejaVuSans-31"/>
    </g>
   </g>
   <g id="text_13">
    <!-- 7 -->
    <g transform="translate(301.726364 273.423)scale(0.16 -0.16)">
     <defs>
      <path id="DejaVuSans-37" d="M 525 4666 
L 3525 4666 
L 3525 4397 
L 1831 0 
L 1172 0 
L 2766 4134 
L 525 4134 
L 525 4666 
z
" transform="scale(0.015625)"/>
     </defs>
     <use xlink:href="#DejaVuSans-37"/>
    </g>
   </g>
   <g id="text_14">
    <!-- 6 -->
    <g transform="translate(301.726364 209.831)scale(0.16 -0.16)">
     <defs>
      <path id="DejaVuSans-36" d="M 2113 2584 
Q 1688 2584 1439 2293 
Q 1191 2003 1191 1497 
Q 1191 994 1439 701 
Q 1688 409 2113 409 
Q 2538 409 2786 701 
Q 3034 994 3034 1497 
Q 3034 2003 2786 2293 
Q 2538 2584 2113 2584 
z
M 3366 4563 
L 3366 3988 
Q 3128 4100 2886 4159 
Q 2644 4219 2406 4219 
Q 1781 4219 1451 3797 
Q 1122 3375 1075 2522 
Q 1259 2794 1537 2939 
Q 1816 3084 2150 3084 
Q 2853 3084 3261 2657 
Q 3669 2231 3669 1497 
Q 3669 778 3244 343 
Q 2819 -91 2113 -91 
Q 1303 -91 875 529 
Q 447 1150 447 2328 
Q 447 3434 972 4092 
Q 1497 4750 2381 4750 
Q 2619 4750 2861 4703 
Q 3103 4656 3366 4563 
z
" transform="scale(0.015625)"/>
     </defs>
     <use xlink:href="#DejaVuSans-36"/>
    </g>
   </g>
   <g id="text_15">
    <!-- 3 -->
    <g transform="translate(301.726364 146.239)scale(0.16 -0.16)">
     <use xlink:href="#DejaVuSans-33"/>
    </g>
   </g>
   <g id="text_16">
    <!-- 4 -->
    <g transform="translate(301.726364 82.647)scale(0.16 -0.16)">
     <use xlink:href="#DejaVuSans-34"/>
    </g>
   </g>
   <g id="text_17">
    <!-- 9 -->
    <g transform="translate(632.621818 209.831)scale(0.16 -0.16)">
     <use xlink:href="#DejaVuSans-39"/>
    </g>
   </g>
   <g id="text_18">
    <!-- 4 -->
    <g transform="translate(632.621818 146.239)scale(0.16 -0.16)">
     <use xlink:href="#DejaVuSans-34"/>
    </g>
   </g>
   <g id="text_19">
    <!-- 9 -->
    <g transform="translate(698.800909 209.831)scale(0.16 -0.16)">
     <use xlink:href="#DejaVuSans-39"/>
    </g>
   </g>
   <g id="text_20">
    <!-- 4 -->
    <g transform="translate(698.800909 146.239)scale(0.16 -0.16)">
     <use xlink:href="#DejaVuSans-34"/>
    </g>
   </g>
   <g id="text_21">
    <!-- Max pool with  -->
    <g transform="translate(399.476591 90.67355)scale(0.2 -0.2)">
     <defs>
      <path id="DejaVuSans-4d" d="M 628 4666 
L 1569 4666 
L 2759 1491 
L 3956 4666 
L 4897 4666 
L 4897 0 
L 4281 0 
L 4281 4097 
L 3078 897 
L 2444 897 
L 1241 4097 
L 1241 0 
L 628 0 
L 628 4666 
z
" transform="scale(0.015625)"/>
      <path id="DejaVuSans-61" d="M 2194 1759 
Q 1497 1759 1228 1600 
Q 959 1441 959 1056 
Q 959 750 1161 570 
Q 1363 391 1709 391 
Q 2188 391 2477 730 
Q 2766 1069 2766 1631 
L 2766 1759 
L 2194 1759 
z
M 3341 1997 
L 3341 0 
L 2766 0 
L 2766 531 
Q 2569 213 2275 61 
Q 1981 -91 1556 -91 
Q 1019 -91 701 211 
Q 384 513 384 1019 
Q 384 1609 779 1909 
Q 1175 2209 1959 2209 
L 2766 2209 
L 2766 2266 
Q 2766 2663 2505 2880 
Q 2244 3097 1772 3097 
Q 1472 3097 1187 3025 
Q 903 2953 641 2809 
L 641 3341 
Q 956 3463 1253 3523 
Q 1550 3584 1831 3584 
Q 2591 3584 2966 3190 
Q 3341 2797 3341 1997 
z
" transform="scale(0.015625)"/>
      <path id="DejaVuSans-78" d="M 3513 3500 
L 2247 1797 
L 3578 0 
L 2900 0 
L 1881 1375 
L 863 0 
L 184 0 
L 1544 1831 
L 300 3500 
L 978 3500 
L 1906 2253 
L 2834 3500 
L 3513 3500 
z
" transform="scale(0.015625)"/>
      <path id="DejaVuSans-20" transform="scale(0.015625)"/>
      <path id="DejaVuSans-70" d="M 1159 525 
L 1159 -1331 
L 581 -1331 
L 581 3500 
L 1159 3500 
L 1159 2969 
Q 1341 3281 1617 3432 
Q 1894 3584 2278 3584 
Q 2916 3584 3314 3078 
Q 3713 2572 3713 1747 
Q 3713 922 3314 415 
Q 2916 -91 2278 -91 
Q 1894 -91 1617 61 
Q 1341 213 1159 525 
z
M 3116 1747 
Q 3116 2381 2855 2742 
Q 2594 3103 2138 3103 
Q 1681 3103 1420 2742 
Q 1159 2381 1159 1747 
Q 1159 1113 1420 752 
Q 1681 391 2138 391 
Q 2594 391 2855 752 
Q 3116 1113 3116 1747 
z
" transform="scale(0.015625)"/>
      <path id="DejaVuSans-6f" d="M 1959 3097 
Q 1497 3097 1228 2736 
Q 959 2375 959 1747 
Q 959 1119 1226 758 
Q 1494 397 1959 397 
Q 2419 397 2687 759 
Q 2956 1122 2956 1747 
Q 2956 2369 2687 2733 
Q 2419 3097 1959 3097 
z
M 1959 3584 
Q 2709 3584 3137 3096 
Q 3566 2609 3566 1747 
Q 3566 888 3137 398 
Q 2709 -91 1959 -91 
Q 1206 -91 779 398 
Q 353 888 353 1747 
Q 353 2609 779 3096 
Q 1206 3584 1959 3584 
z
" transform="scale(0.015625)"/>
      <path id="DejaVuSans-6c" d="M 603 4863 
L 1178 4863 
L 1178 0 
L 603 0 
L 603 4863 
z
" transform="scale(0.015625)"/>
      <path id="DejaVuSans-77" d="M 269 3500 
L 844 3500 
L 1563 769 
L 2278 3500 
L 2956 3500 
L 3675 769 
L 4391 3500 
L 4966 3500 
L 4050 0 
L 3372 0 
L 2619 2869 
L 1863 0 
L 1184 0 
L 269 3500 
z
" transform="scale(0.015625)"/>
      <path id="DejaVuSans-69" d="M 603 3500 
L 1178 3500 
L 1178 0 
L 603 0 
L 603 3500 
z
M 603 4863 
L 1178 4863 
L 1178 4134 
L 603 4134 
L 603 4863 
z
" transform="scale(0.015625)"/>
      <path id="DejaVuSans-74" d="M 1172 4494 
L 1172 3500 
L 2356 3500 
L 2356 3053 
L 1172 3053 
L 1172 1153 
Q 1172 725 1289 603 
Q 1406 481 1766 481 
L 2356 481 
L 2356 0 
L 1766 0 
Q 1100 0 847 248 
Q 594 497 594 1153 
L 594 3053 
L 172 3053 
L 172 3500 
L 594 3500 
L 594 4494 
L 1172 4494 
z
" transform="scale(0.015625)"/>
      <path id="DejaVuSans-68" d="M 3513 2113 
L 3513 0 
L 2938 0 
L 2938 2094 
Q 2938 2591 2744 2837 
Q 2550 3084 2163 3084 
Q 1697 3084 1428 2787 
Q 1159 2491 1159 1978 
L 1159 0 
L 581 0 
L 581 4863 
L 1159 4863 
L 1159 2956 
Q 1366 3272 1645 3428 
Q 1925 3584 2291 3584 
Q 2894 3584 3203 3211 
Q 3513 2838 3513 2113 
z
" transform="scale(0.015625)"/>
     </defs>
     <use xlink:href="#DejaVuSans-4d"/>
     <use xlink:href="#DejaVuSans-61" x="86.279297"/>
     <use xlink:href="#DejaVuSans-78" x="147.558594"/>
     <use xlink:href="#DejaVuSans-20" x="206.738281"/>
     <use xlink:href="#DejaVuSans-70" x="238.525391"/>
     <use xlink:href="#DejaVuSans-6f" x="302.001953"/>
     <use xlink:href="#DejaVuSans-6f" x="363.183594"/>
     <use xlink:href="#DejaVuSans-6c" x="424.365234"/>
     <use xlink:href="#DejaVuSans-20" x="452.148438"/>
     <use xlink:href="#DejaVuSans-77" x="483.935547"/>
     <use xlink:href="#DejaVuSans-69" x="565.722656"/>
     <use xlink:href="#DejaVuSans-74" x="593.505859"/>
     <use xlink:href="#DejaVuSans-68" x="632.714844"/>
     <use xlink:href="#DejaVuSans-20" x="696.09375"/>
    </g>
    <!--  stride 2 and  -->
    <g transform="translate(405.854716 113.069175)scale(0.2 -0.2)">
     <defs>
      <path id="DejaVuSans-73" d="M 2834 3397 
L 2834 2853 
Q 2591 2978 2328 3040 
Q 2066 3103 1784 3103 
Q 1356 3103 1142 2972 
Q 928 2841 928 2578 
Q 928 2378 1081 2264 
Q 1234 2150 1697 2047 
L 1894 2003 
Q 2506 1872 2764 1633 
Q 3022 1394 3022 966 
Q 3022 478 2636 193 
Q 2250 -91 1575 -91 
Q 1294 -91 989 -36 
Q 684 19 347 128 
L 347 722 
Q 666 556 975 473 
Q 1284 391 1588 391 
Q 1994 391 2212 530 
Q 2431 669 2431 922 
Q 2431 1156 2273 1281 
Q 2116 1406 1581 1522 
L 1381 1569 
Q 847 1681 609 1914 
Q 372 2147 372 2553 
Q 372 3047 722 3315 
Q 1072 3584 1716 3584 
Q 2034 3584 2315 3537 
Q 2597 3491 2834 3397 
z
" transform="scale(0.015625)"/>
      <path id="DejaVuSans-72" d="M 2631 2963 
Q 2534 3019 2420 3045 
Q 2306 3072 2169 3072 
Q 1681 3072 1420 2755 
Q 1159 2438 1159 1844 
L 1159 0 
L 581 0 
L 581 3500 
L 1159 3500 
L 1159 2956 
Q 1341 3275 1631 3429 
Q 1922 3584 2338 3584 
Q 2397 3584 2469 3576 
Q 2541 3569 2628 3553 
L 2631 2963 
z
" transform="scale(0.015625)"/>
      <path id="DejaVuSans-64" d="M 2906 2969 
L 2906 4863 
L 3481 4863 
L 3481 0 
L 2906 0 
L 2906 525 
Q 2725 213 2448 61 
Q 2172 -91 1784 -91 
Q 1150 -91 751 415 
Q 353 922 353 1747 
Q 353 2572 751 3078 
Q 1150 3584 1784 3584 
Q 2172 3584 2448 3432 
Q 2725 3281 2906 2969 
z
M 947 1747 
Q 947 1113 1208 752 
Q 1469 391 1925 391 
Q 2381 391 2643 752 
Q 2906 1113 2906 1747 
Q 2906 2381 2643 2742 
Q 2381 3103 1925 3103 
Q 1469 3103 1208 2742 
Q 947 2381 947 1747 
z
" transform="scale(0.015625)"/>
      <path id="DejaVuSans-65" d="M 3597 1894 
L 3597 1613 
L 953 1613 
Q 991 1019 1311 708 
Q 1631 397 2203 397 
Q 2534 397 2845 478 
Q 3156 559 3463 722 
L 3463 178 
Q 3153 47 2828 -22 
Q 2503 -91 2169 -91 
Q 1331 -91 842 396 
Q 353 884 353 1716 
Q 353 2575 817 3079 
Q 1281 3584 2069 3584 
Q 2775 3584 3186 3129 
Q 3597 2675 3597 1894 
z
M 3022 2063 
Q 3016 2534 2758 2815 
Q 2500 3097 2075 3097 
Q 1594 3097 1305 2825 
Q 1016 2553 972 2059 
L 3022 2063 
z
" transform="scale(0.015625)"/>
      <path id="DejaVuSans-6e" d="M 3513 2113 
L 3513 0 
L 2938 0 
L 2938 2094 
Q 2938 2591 2744 2837 
Q 2550 3084 2163 3084 
Q 1697 3084 1428 2787 
Q 1159 2491 1159 1978 
L 1159 0 
L 581 0 
L 581 3500 
L 1159 3500 
L 1159 2956 
Q 1366 3272 1645 3428 
Q 1925 3584 2291 3584 
Q 2894 3584 3203 3211 
Q 3513 2838 3513 2113 
z
" transform="scale(0.015625)"/>
     </defs>
     <use xlink:href="#DejaVuSans-20"/>
     <use xlink:href="#DejaVuSans-73" x="31.787109"/>
     <use xlink:href="#DejaVuSans-74" x="83.886719"/>
     <use xlink:href="#DejaVuSans-72" x="123.095703"/>
     <use xlink:href="#DejaVuSans-69" x="164.208984"/>
     <use xlink:href="#DejaVuSans-64" x="191.992188"/>
     <use xlink:href="#DejaVuSans-65" x="255.46875"/>
     <use xlink:href="#DejaVuSans-20" x="316.992188"/>
     <use xlink:href="#DejaVuSans-32" x="348.779297"/>
     <use xlink:href="#DejaVuSans-20" x="412.402344"/>
     <use xlink:href="#DejaVuSans-61" x="444.189453"/>
     <use xlink:href="#DejaVuSans-6e" x="505.46875"/>
     <use xlink:href="#DejaVuSans-64" x="568.847656"/>
     <use xlink:href="#DejaVuSans-20" x="632.324219"/>
    </g>
    <!-- 2 x 2 filter -->
    <g transform="translate(420.825028 135.4648)scale(0.2 -0.2)">
     <defs>
      <path id="DejaVuSans-66" d="M 2375 4863 
L 2375 4384 
L 1825 4384 
Q 1516 4384 1395 4259 
Q 1275 4134 1275 3809 
L 1275 3500 
L 2222 3500 
L 2222 3053 
L 1275 3053 
L 1275 0 
L 697 0 
L 697 3053 
L 147 3053 
L 147 3500 
L 697 3500 
L 697 3744 
Q 697 4328 969 4595 
Q 1241 4863 1831 4863 
L 2375 4863 
z
" transform="scale(0.015625)"/>
     </defs>
     <use xlink:href="#DejaVuSans-32"/>
     <use xlink:href="#DejaVuSans-20" x="63.623047"/>
     <use xlink:href="#DejaVuSans-78" x="95.410156"/>
     <use xlink:href="#DejaVuSans-20" x="154.589844"/>
     <use xlink:href="#DejaVuSans-32" x="186.376953"/>
     <use xlink:href="#DejaVuSans-20" x="250"/>
     <use xlink:href="#DejaVuSans-66" x="281.787109"/>
     <use xlink:href="#DejaVuSans-69" x="316.992188"/>
     <use xlink:href="#DejaVuSans-6c" x="344.775391"/>
     <use xlink:href="#DejaVuSans-74" x="372.558594"/>
     <use xlink:href="#DejaVuSans-65" x="411.767578"/>
     <use xlink:href="#DejaVuSans-72" x="473.291016"/>
    </g>
   </g>
  </g>
 </g>
 <defs>
  <clipPath id="p53196b81fe">
   <rect x="42.1" y="14.64" width="727.97" height="317.96"/>
  </clipPath>
 </defs>
</svg>
